<?xml version="1.0" encoding="UTF-8"?>
<svg version="1.1" xmlns="http://www.w3.org/2000/svg" width="32" height="32">
<path d="M0 0 C10.56 0 21.12 0 32 0 C32 10.56 32 21.12 32 32 C21.44 32 10.88 32 0 32 C0 21.44 0 10.88 0 0 Z " fill="#726D61" transform="translate(0,0)"/>
<path d="M0 0 C1.65 0 3.3 0 5 0 C5.33 1.65 5.66 3.3 6 5 C6.66 5 7.32 5 8 5 C7.67 6.98 7.34 8.96 7 11 C7.66 11 8.32 11 9 11 C9.33 11.99 9.66 12.98 10 14 C10.33 13.01 10.66 12.02 11 11 C11.66 11 12.32 11 13 11 C13 10.34 13 9.68 13 9 C13.99 8.67 14.98 8.34 16 8 C16.66 8.33 17.32 8.66 18 9 C18 9.99 18 10.98 18 12 C20.475 12.495 20.475 12.495 23 13 C23 15.31 23 17.62 23 20 C12.44 20 1.88 20 -9 20 C-9 17.69 -9 15.38 -9 13 C-1.25 12.875 -1.25 12.875 1 14 C0.67 9.38 0.34 4.76 0 0 Z " fill="#564B40" transform="translate(9,12)"/>
<path d="M0 0 C0.99 0.33 1.98 0.66 3 1 C5.39254576 1.22560676 7.78928123 1.40848595 10.1875 1.5625 C12.09595703 1.68818359 12.09595703 1.68818359 14.04296875 1.81640625 C15.01878906 1.87699219 15.99460937 1.93757812 17 2 C17 5.3 17 8.6 17 12 C15.35 11.67 13.7 11.34 12 11 C12 10.01 12 9.02 12 8 C10.35 8 8.7 8 7 8 C7 8.66 7 9.32 7 10 C6.34 10 5.68 10 5 10 C4.67 11.32 4.34 12.64 4 14 C3.34 13.67 2.68 13.34 2 13 C2.33 12.01 2.66 11.02 3 10 C2.34 10 1.68 10 1 10 C1.33 8.02 1.66 6.04 2 4 C1.34 4 0.68 4 0 4 C0 2.68 0 1.36 0 0 Z " fill="#8A8277" transform="translate(15,13)"/>
<path d="M0 0 C1.65 0 3.3 0 5 0 C5.33 1.65 5.66 3.3 6 5 C6.66 5 7.32 5 8 5 C7.67 6.98 7.34 8.96 7 11 C7.66 11 8.32 11 9 11 C8.67 12.65 8.34 14.3 8 16 C5.03 16 2.06 16 -1 16 C-1 15.01 -1 14.02 -1 13 C-0.34 13.33 0.32 13.66 1 14 C0.67 9.38 0.34 4.76 0 0 Z " fill="#645A51" transform="translate(9,12)"/>
<path d="M0 0 C0.99 0.33 1.98 0.66 3 1 C3 1.99 3 2.98 3 4 C4.65 4.33 6.3 4.66 8 5 C8 7.31 8 9.62 8 12 C6.02 12 4.04 12 2 12 C2 11.01 2 10.02 2 9 C1.34 9 0.68 9 0 9 C0.33 8.01 0.66 7.02 1 6 C-0.65 5.67 -2.3 5.34 -4 5 C-4 4.34 -4 3.68 -4 3 C-3.34 3 -2.68 3 -2 3 C-2 2.34 -2 1.68 -2 1 C-1.34 0.67 -0.68 0.34 0 0 Z " fill="#5F584C" transform="translate(24,20)"/>
<path d="M0 0 C2.31 0 4.62 0 7 0 C7.226875 0.639375 7.45375 1.27875 7.6875 1.9375 C8.84336241 4.23242997 8.84336241 4.23242997 11.4375 4.8125 C14.11939103 5.17387821 14.11939103 5.17387821 17 4 C17 4.99 17 5.98 17 7 C11.39 7 5.78 7 0 7 C0 4.69 0 2.38 0 0 Z " fill="#514D41" transform="translate(0,25)"/>
<path d="M0 0 C2.97 0 5.94 0 9 0 C9.125 2.875 9.125 2.875 9 6 C7 8 7 8 3.375 8.125 C2.26125 8.08375 1.1475 8.0425 0 8 C0 5.36 0 2.72 0 0 Z " fill="#89887C" transform="translate(0,16)"/>
<path d="M0 0 C0.99 1.32 1.98 2.64 3 4 C3.33 3.34 3.66 2.68 4 2 C7.63 2 11.26 2 15 2 C15 3.98 15 5.96 15 8 C13.35 7.67 11.7 7.34 10 7 C10 6.01 10 5.02 10 4 C8.35 4 6.7 4 5 4 C5 4.66 5 5.32 5 6 C4.34 6 3.68 6 3 6 C2.67 7.32 2.34 8.64 2 10 C1.34 9.67 0.68 9.34 0 9 C0.33 8.01 0.66 7.02 1 6 C0.34 6 -0.32 6 -1 6 C-0.67 4.02 -0.34 2.04 0 0 Z " fill="#787066" transform="translate(17,17)"/>
<path d="M0 0 C0.391875 0.639375 0.78375 1.27875 1.1875 1.9375 C3.41785583 4.47549112 4.67842984 4.75088224 8 5 C8.99 4.67 9.98 4.34 11 4 C11 4.99 11 5.98 11 7 C7.04 7 3.08 7 -1 7 C-1 1 -1 1 0 0 Z " fill="#3E372F" transform="translate(6,25)"/>
<path d="M0 0 C2.97 0 5.94 0 9 0 C8.34 1.32 7.68 2.64 7 4 C4.69 4 2.38 4 0 4 C0 2.68 0 1.36 0 0 Z " fill="#7C7B71" transform="translate(0,20)"/>
<path d="M0 0 C1.32 0.33 2.64 0.66 4 1 C4 3.31 4 5.62 4 8 C2.68 8 1.36 8 0 8 C0 5.36 0 2.72 0 0 Z " fill="#6C3B37" transform="translate(11,12)"/>
<path d="M0 0 C0.99 0.33 1.98 0.66 3 1 C2.67 2.32 2.34 3.64 2 5 C0.02 5 -1.96 5 -4 5 C-4 4.34 -4 3.68 -4 3 C-3.34 3 -2.68 3 -2 3 C-2 2.34 -2 1.68 -2 1 C-1.34 0.67 -0.68 0.34 0 0 Z " fill="#656054" transform="translate(24,20)"/>
<path d="M0 0 C1.65 0 3.3 0 5 0 C5 1.32 5 2.64 5 4 C3.02 4 1.04 4 -1 4 C-0.67 2.68 -0.34 1.36 0 0 Z " fill="#919084" transform="translate(27,15)"/>
</svg>
